<svg xmlns="http://www.w3.org/2000/svg" width="600" height="600" viewBox="0 0 600 600">
  <!-- Background -->
  <rect width="600" height="600" fill="#F9F5F0" />
  
  <!-- Abacus frame -->
  <!-- Left vertical support -->
  <rect x="150" y="200" width="20" height="200" rx="5" fill="#8B5A2B" />
  <rect x="155" y="205" width="10" height="190" rx="3" fill="#A67C52" />
  
  <!-- Right vertical support -->
  <rect x="430" y="200" width="20" height="200" rx="5" fill="#8B5A2B" />
  <rect x="435" y="205" width="10" height="190" rx="3" fill="#A67C52" />
  
  <!-- Top horizontal support -->
  <rect x="150" y="200" width="300" height="20" rx="5" fill="#8B5A2B" />
  <rect x="155" y="205" width="290" height="10" rx="3" fill="#A67C52" />
  
  <!-- Bottom horizontal support -->
  <rect x="150" y="380" width="300" height="20" rx="5" fill="#8B5A2B" />
  <rect x="155" y="385" width="290" height="10" rx="3" fill="#A67C52" />
  
  <!-- Middle divider -->
  <rect x="150" y="290" width="300" height="10" rx="3" fill="#8B5A2B" />
  <rect x="155" y="292" width="290" height="6" rx="2" fill="#A67C52" />
  
  <!-- Rods -->
  <!-- Rod 1 (top section) -->
  <line x1="170" y1="230" x2="430" y2="230" stroke="#6B4226" stroke-width="3" />
  <!-- Rod 2 (top section) -->
  <line x1="170" y1="260" x2="430" y2="260" stroke="#6B4226" stroke-width="3" />
  <!-- Rod 3 (bottom section) -->
  <line x1="170" y1="320" x2="430" y2="320" stroke="#6B4226" stroke-width="3" />
  <!-- Rod 4 (bottom section) -->
  <line x1="170" y1="350" x2="430" y2="350" stroke="#6B4226" stroke-width="3" />
  
  <!-- Beads on Rod 1 (top section) -->
  <!-- Left side -->
  <circle cx="200" cy="230" r="12" fill="#D2B48C" />
  <circle cx="200" cy="230" r="8" fill="#E6D2B5" />
  <circle cx="230" cy="230" r="12" fill="#D2B48C" />
  <circle cx="230" cy="230" r="8" fill="#E6D2B5" />
  <!-- Right side -->
  <circle cx="370" cy="230" r="12" fill="#D2B48C" />
  <circle cx="370" cy="230" r="8" fill="#E6D2B5" />
  <circle cx="400" cy="230" r="12" fill="#D2B48C" />
  <circle cx="400" cy="230" r="8" fill="#E6D2B5" />
  
  <!-- Beads on Rod 2 (top section) -->
  <!-- Left side -->
  <circle cx="190" cy="260" r="12" fill="#C19A6B" />
  <circle cx="190" cy="260" r="8" fill="#D2B48C" />
  <circle cx="220" cy="260" r="12" fill="#C19A6B" />
  <circle cx="220" cy="260" r="8" fill="#D2B48C" />
  <!-- Right side -->
  <circle cx="380" cy="260" r="12" fill="#C19A6B" />
  <circle cx="380" cy="260" r="8" fill="#D2B48C" />
  <circle cx="410" cy="260" r="12" fill="#C19A6B" />
  <circle cx="410" cy="260" r="8" fill="#D2B48C" />
  
  <!-- Beads on Rod 3 (bottom section) -->
  <!-- Left side -->
  <circle cx="210" cy="320" r="12" fill="#A67C52" />
  <circle cx="210" cy="320" r="8" fill="#C19A6B" />
  <circle cx="240" cy="320" r="12" fill="#A67C52" />
  <circle cx="240" cy="320" r="8" fill="#C19A6B" />
  <circle cx="270" cy="320" r="12" fill="#A67C52" />
  <circle cx="270" cy="320" r="8" fill="#C19A6B" />
  <!-- Right side -->
  <circle cx="330" cy="320" r="12" fill="#A67C52" />
  <circle cx="330" cy="320" r="8" fill="#C19A6B" />
  <circle cx="360" cy="320" r="12" fill="#A67C52" />
  <circle cx="360" cy="320" r="8" fill="#C19A6B" />
  <circle cx="390" cy="320" r="12" fill="#A67C52" />
  <circle cx="390" cy="320" r="8" fill="#C19A6B" />
  
  <!-- Beads on Rod 4 (bottom section) -->
  <!-- Left side -->
  <circle cx="200" cy="350" r="12" fill="#8B5A2B" />
  <circle cx="200" cy="350" r="8" fill="#A67C52" />
  <circle cx="230" cy="350" r="12" fill="#8B5A2B" />
  <circle cx="230" cy="350" r="8" fill="#A67C52" />
  <circle cx="260" cy="350" r="12" fill="#8B5A2B" />
  <circle cx="260" cy="350" r="8" fill="#A67C52" />
  <!-- Right side -->
  <circle cx="340" cy="350" r="12" fill="#8B5A2B" />
  <circle cx="340" cy="350" r="8" fill="#A67C52" />
  <circle cx="370" cy="350" r="12" fill="#8B5A2B" />
  <circle cx="370" cy="350" r="8" fill="#A67C52" />
  <circle cx="400" cy="350" r="12" fill="#8B5A2B" />
  <circle cx="400" cy="350" r="8" fill="#A67C52" />
  
  <!-- Base -->
  <rect x="130" y="400" width="340" height="20" rx="5" fill="#8B5A2B" />
  <rect x="140" y="405" width="320" height="10" rx="3" fill="#A67C52" />
  
  <!-- Wood grain on base -->
  <path d="M180,410 C220,415 380,415 420,410" stroke="#6B4226" stroke-width="1" fill="none" opacity="0.3" />
</svg>