<svg xmlns="http://www.w3.org/2000/svg" width="600" height="600" viewBox="0 0 600 600">
  <!-- Background -->
  <rect width="600" height="600" fill="#F9F5F0" />
  
  <!-- Wooden base/platform -->
  <rect x="150" y="400" width="300" height="20" rx="5" fill="#8B5A2B" />
  <rect x="160" y="405" width="280" height="10" rx="3" fill="#A67C52" />
  
  <!-- Wood grain on base -->
  <path d="M200,410 C250,415 350,415 400,410" stroke="#6B4226" stroke-width="1" fill="none" opacity="0.3" />
  
  <!-- Elephant -->
  <!-- Body -->
  <ellipse cx="200" cy="350" rx="30" ry="20" fill="#D2B48C" />
  <!-- Head -->
  <circle cx="170" cy="340" r="15" fill="#D2B48C" />
  <!-- Trunk -->
  <path d="M160,340 C155,350 150,360 155,370" stroke="#D2B48C" stroke-width="8" fill="none" />
  <!-- Ears -->
  <ellipse cx="170" cy="330" rx="10" ry="15" fill="#E6D2B5" />
  <ellipse cx="170" cy="330" rx="7" ry="12" fill="#D2B48C" />
  <!-- Legs -->
  <rect x="185" y="370" width="8" height="30" rx="2" fill="#C19A6B" />
  <rect x="205" y="370" width="8" height="30" rx="2" fill="#C19A6B" />
  <!-- Tail -->
  <path d="M230,350 C235,345 240,350 240,355" stroke="#C19A6B" stroke-width="3" fill="none" />
  
  <!-- Lion -->
  <!-- Body -->
  <ellipse cx="300" cy="350" rx="25" ry="20" fill="#C19A6B" />
  <!-- Head -->
  <circle cx="275" cy="340" r="15" fill="#D2B48C" />
  <!-- Mane -->
  <circle cx="275" cy="340" r="20" fill="none" stroke="#A67C52" stroke-width="5" stroke-dasharray="2,3" />
  <!-- Legs -->
  <rect x="285" y="370" width="8" height="30" rx="2" fill="#C19A6B" />
  <rect x="305" y="370" width="8" height="30" rx="2" fill="#C19A6B" />
  <!-- Tail -->
  <path d="M325,350 C330,345 335,350 335,360" stroke="#C19A6B" stroke-width="3" fill="none" />
  <circle cx="335" cy="360" r="3" fill="#A67C52" />
  
  <!-- Giraffe -->
  <!-- Body -->
  <ellipse cx="400" cy="360" rx="20" ry="15" fill="#E6D2B5" />
  <!-- Neck -->
  <path d="M390,345 C385,330 385,315 390,300" stroke="#E6D2B5" stroke-width="10" fill="none" />
  <!-- Head -->
  <ellipse cx="390" cy="290" r="10" ry="12" fill="#E6D2B5" />
  <!-- Spots -->
  <circle cx="400" cy="355" r="3" fill="#A67C52" />
  <circle cx="410" cy="365" r="3" fill="#A67C52" />
  <circle cx="390" cy="365" r="3" fill="#A67C52" />
  <circle cx="385" cy="330" r="3" fill="#A67C52" />
  <circle cx="385" cy="315" r="3" fill="#A67C52" />
  <circle cx="395" cy="290" r="3" fill="#A67C52" />
  <!-- Legs -->
  <rect x="390" y="375" width="6" height="25" rx="2" fill="#E6D2B5" />
  <rect x="405" y="375" width="6" height="25" rx="2" fill="#E6D2B5" />
  
  <!-- Zebra -->
  <!-- Body -->
  <ellipse cx="500" cy="350" rx="25" ry="20" fill="#E6D2B5" />
  <!-- Head -->
  <ellipse cx="475" cy="335" rx="15" ry="10" fill="#E6D2B5" />
  <!-- Stripes -->
  <path d="M485,330 C490,335 495,340 500,345" stroke="#8B5A2B" stroke-width="2" fill="none" />
  <path d="M490,335 C495,340 500,345 505,350" stroke="#8B5A2B" stroke-width="2" fill="none" />
  <path d="M495,340 C500,345 505,350 510,355" stroke="#8B5A2B" stroke-width="2" fill="none" />
  <path d="M475,330 C480,335 485,340 490,345" stroke="#8B5A2B" stroke-width="2" fill="none" />
  <!-- Legs -->
  <rect x="485" y="370" width="8" height="30" rx="2" fill="#E6D2B5" />
  <rect x="505" y="370" width="8" height="30" rx="2" fill="#E6D2B5" />
  <!-- Tail -->
  <path d="M525,350 C530,345 535,350 535,360" stroke="#E6D2B5" stroke-width="3" fill="none" />
  <path d="M535,360 C535,365 535,370 535,375" stroke="#8B5A2B" stroke-width="2" fill="none" />
  
  <!-- Shadow under the animals -->
  <ellipse cx="200" cy="430" rx="30" ry="5" fill="#6B4226" opacity="0.2" />
  <ellipse cx="300" cy="430" rx="25" ry="5" fill="#6B4226" opacity="0.2" />
  <ellipse cx="400" cy="430" rx="20" ry="5" fill="#6B4226" opacity="0.2" />
  <ellipse cx="500" cy="430" rx="25" ry="5" fill="#6B4226" opacity="0.2" />
</svg>