<svg xmlns="http://www.w3.org/2000/svg" width="600" height="600" viewBox="0 0 600 600">
  <!-- Background -->
  <rect width="600" height="600" fill="#F9F5F0" />
  
  <!-- Base/Floor -->
  <ellipse cx="300" cy="500" rx="200" ry="20" fill="#8B5A2B" opacity="0.2" />
  
  <!-- Building blocks structure -->
  <!-- Bottom layer -->
  <!-- Large rectangular block -->
  <rect x="200" y="400" width="200" height="60" rx="5" fill="#D2B48C" />
  <rect x="205" y="405" width="190" height="50" rx="3" fill="#E6D2B5" />
  <!-- Wood grain on large block -->
  <path d="M220,420 L380,420" stroke="#A67C52" stroke-width="1" fill="none" opacity="0.3" />
  <path d="M220,430 L380,430" stroke="#A67C52" stroke-width="1" fill="none" opacity="0.3" />
  <path d="M220,440 L380,440" stroke="#A67C52" stroke-width="1" fill="none" opacity="0.3" />
  
  <!-- Middle layer -->
  <!-- Cube block 1 -->
  <rect x="220" y="340" width="60" height="60" rx="3" fill="#A52A2A" />
  <rect x="225" y="345" width="50" height="50" rx="2" fill="#CD5C5C" />
  <!-- Wood grain on cube 1 -->
  <path d="M235,360 L265,360" stroke="#8B2323" stroke-width="1" fill="none" opacity="0.3" />
  <path d="M235,370 L265,370" stroke="#8B2323" stroke-width="1" fill="none" opacity="0.3" />
  <path d="M235,380 L265,380" stroke="#8B2323" stroke-width="1" fill="none" opacity="0.3" />
  
  <!-- Cube block 2 -->
  <rect x="320" y="340" width="60" height="60" rx="3" fill="#228B22" />
  <rect x="325" y="345" width="50" height="50" rx="2" fill="#32CD32" />
  <!-- Wood grain on cube 2 -->
  <path d="M335,360 L365,360" stroke="#006400" stroke-width="1" fill="none" opacity="0.3" />
  <path d="M335,370 L365,370" stroke="#006400" stroke-width="1" fill="none" opacity="0.3" />
  <path d="M335,380 L365,380" stroke="#006400" stroke-width="1" fill="none" opacity="0.3" />
  
  <!-- Top layer -->
  <!-- Triangular block -->
  <polygon points="250,280 300,220 350,280" fill="#4169E1" />
  <polygon points="255,280 300,230 345,280" fill="#6495ED" />
  <!-- Wood grain on triangle -->
  <path d="M270,260 L330,260" stroke="#104E8B" stroke-width="1" fill="none" opacity="0.3" />
  <path d="M280,250 L320,250" stroke="#104E8B" stroke-width="1" fill="none" opacity="0.3" />
  <path d="M290,240 L310,240" stroke="#104E8B" stroke-width="1" fill="none" opacity="0.3" />
  
  <!-- Additional blocks scattered around -->
  <!-- Cylinder block -->
  <g transform="translate(150, 380) rotate(-15)">
    <ellipse cx="0" cy="-20" rx="20" ry="10" fill="#FFD700" />
    <rect x="-20" y="-20" width="40" height="40" fill="#FFD700" />
    <ellipse cx="0" cy="20" rx="20" ry="10" fill="#FFD700" />
    
    <ellipse cx="0" cy="-20" rx="15" ry="7" fill="#FFEC8B" />
    <rect x="-15" y="-20" width="30" height="40" fill="#FFEC8B" />
    <ellipse cx="0" cy="20" rx="15" ry="7" fill="#FFEC8B" />
    
    <!-- Wood grain on cylinder -->
    <path d="M-10,0 L10,0" stroke="#B8860B" stroke-width="1" fill="none" opacity="0.3" />
    <path d="M-10,-10 L10,-10" stroke="#B8860B" stroke-width="1" fill="none" opacity="0.3" />
    <path d="M-10,10 L10,10" stroke="#B8860B" stroke-width="1" fill="none" opacity="0.3" />
  </g>
  
  <!-- Small cube block -->
  <g transform="translate(420, 380) rotate(10)">
    <rect x="-20" y="-20" width="40" height="40" rx="2" fill="#FF6347" />
    <rect x="-15" y="-15" width="30" height="30" rx="1" fill="#FF7F50" />
    <!-- Wood grain on small cube -->
    <path d="M-10,-5 L10,-5" stroke="#CD3333" stroke-width="1" fill="none" opacity="0.3" />
    <path d="M-10,5 L10,5" stroke="#CD3333" stroke-width="1" fill="none" opacity="0.3" />
  </g>
  
  <!-- Arch block -->
  <g transform="translate(450, 320)">
    <path d="M-30,0 L30,0 L30,30 C30,47 -30,47 -30,30 Z" fill="#9370DB" />
    <path d="M-25,5 L25,5 L25,30 C25,42 -25,42 -25,30 Z" fill="#AB82FF" />
    <!-- Wood grain on arch -->
    <path d="M-15,15 L15,15" stroke="#68228B" stroke-width="1" fill="none" opacity="0.3" />
    <path d="M-10,25 L10,25" stroke="#68228B" stroke-width="1" fill="none" opacity="0.3" />
    <path d="M-5,35 L5,35" stroke="#68228B" stroke-width="1" fill="none" opacity="0.3" />
  </g>
  
  <!-- Half-circle block -->
  <g transform="translate(150, 300)">
    <path d="M-30,0 C-30,-20 30,-20 30,0 Z" fill="#FF69B4" />
    <path d="M-25,-5 C-25,-20 25,-20 25,-5 Z" fill="#FFB6C1" />
    <rect x="-30" y="0" width="60" height="20" fill="#FF69B4" />
    <rect x="-25" y="-5" width="50" height="20" fill="#FFB6C1" />
    <!-- Wood grain on half-circle -->
    <path d="M-15,5 L15,5" stroke="#CD6090" stroke-width="1" fill="none" opacity="0.3" />
    <path d="M-10,-5 L10,-5" stroke="#CD6090" stroke-width="1" fill="none" opacity="0.3" />
  </g>
  
  <!-- Small rectangular block -->
  <g transform="translate(400, 270) rotate(-5)">
    <rect x="-30" y="-15" width="60" height="30" rx="3" fill="#20B2AA" />
    <rect x="-25" y="-10" width="50" height="20" rx="2" fill="#48D1CC" />
    <!-- Wood grain on small rectangle -->
    <path d="M-20,0 L20,0" stroke="#008B8B" stroke-width="1" fill="none" opacity="0.3" />
  </g>
  
  <!-- Small triangular block -->
  <g transform="translate(180, 230) rotate(15)">
    <polygon points="0,-25 25,15 -25,15" fill="#FFA500" />
    <polygon points="0,-20 20,10 -20,10" fill="#FFD700" />
    <!-- Wood grain on small triangle -->
    <path d="M-10,0 L10,0" stroke="#CD8500" stroke-width="1" fill="none" opacity="0.3" />
  </g>
  
  <!-- Tiny cube -->
  <g transform="translate(450, 230) rotate(-10)">
    <rect x="-15" y="-15" width="30" height="30" rx="2" fill="#8B008B" />
    <rect x="-10" y="-10" width="20" height="20" rx="1" fill="#9932CC" />
    <!-- Wood grain on tiny cube -->
    <path d="M-5,0 L5,0" stroke="#551A8B" stroke-width="1" fill="none" opacity="0.3" />
  </g>
  
  <!-- Tiny cylinder -->
  <g transform="translate(350, 180) rotate(5)">
    <ellipse cx="0" cy="-10" rx="10" ry="5" fill="#006400" />
    <rect x="-10" y="-10" width="20" height="20" fill="#006400" />
    <ellipse cx="0" cy="10" rx="10" ry="5" fill="#006400" />
    
    <ellipse cx="0" cy="-10" rx="7" ry="3" fill="#228B22" />
    <rect x="-7" y="-10" width="14" height="20" fill="#228B22" />
    <ellipse cx="0" cy="10" rx="7" ry="3" fill="#228B22" />
    
    <!-- Wood grain on tiny cylinder -->
    <path d="M-5,0 L5,0" stroke="#006400" stroke-width="1" fill="none" opacity="0.3" />
  </g>
  
  <!-- Tiny rectangular block -->
  <g transform="translate(250, 180) rotate(-8)">
    <rect x="-20" y="-10" width="40" height="20" rx="2" fill="#CD5C5C" />
    <rect x="-15" y="-5" width="30" height="10" rx="1" fill="#FF6A6A" />
    <!-- Wood grain on tiny rectangle -->
    <path d="M-10,0 L10,0" stroke="#8B3A3A" stroke-width="1" fill="none" opacity="0.3" />
  </g>
</svg>