<svg xmlns="http://www.w3.org/2000/svg" width="600" height="600" viewBox="0 0 600 600">
  <!-- Background -->
  <rect width="600" height="600" fill="#F9F5F0" />
  
  <!-- Kitchen set base/floor -->
  <rect x="150" y="450" width="300" height="20" rx="5" fill="#8B5A2B" />
  <rect x="160" y="455" width="280" height="10" rx="3" fill="#A67C52" />
  
  <!-- Kitchen cabinet main body -->
  <rect x="200" y="250" width="200" height="200" rx="5" fill="#D2B48C" />
  <rect x="210" y="260" width="180" height="180" rx="3" fill="#E6D2B5" />
  
  <!-- Wood grain on cabinet -->
  <path d="M230,280 C270,285 330,285 370,280" stroke="#C19A6B" stroke-width="1" fill="none" opacity="0.3" />
  <path d="M230,320 C270,325 330,325 370,320" stroke="#C19A6B" stroke-width="1" fill="none" opacity="0.3" />
  <path d="M230,360 C270,365 330,365 370,360" stroke="#C19A6B" stroke-width="1" fill="none" opacity="0.3" />
  <path d="M230,400 C270,405 330,405 370,400" stroke="#C19A6B" stroke-width="1" fill="none" opacity="0.3" />
  
  <!-- Countertop -->
  <rect x="190" y="250" width="220" height="10" rx="3" fill="#8B5A2B" />
  <rect x="195" y="250" width="210" height="5" rx="2" fill="#A67C52" />
  
  <!-- Sink -->
  <rect x="250" y="230" width="60" height="40" rx="3" fill="#A67C52" />
  <rect x="255" y="235" width="50" height="30" rx="2" fill="#C19A6B" />
  <circle cx="280" cy="250" r="10" fill="#8B5A2B" />
  <circle cx="280" cy="250" r="7" fill="#6B4226" />
  <!-- Faucet -->
  <path d="M280,240 C280,235 280,230 280,225" stroke="#8B5A2B" stroke-width="3" fill="none" />
  <path d="M280,225 C285,225 290,225 295,225" stroke="#8B5A2B" stroke-width="3" fill="none" />
  
  <!-- Stove/Cooktop -->
  <rect x="330" y="230" width="50" height="40" rx="3" fill="#8B5A2B" />
  <rect x="335" y="235" width="40" height="30" rx="2" fill="#6B4226" />
  <!-- Burners -->
  <circle cx="345" cy="245" r="5" fill="#8B5A2B" />
  <circle cx="345" cy="245" r="3" fill="#A67C52" />
  <circle cx="365" cy="245" r="5" fill="#8B5A2B" />
  <circle cx="365" cy="245" r="3" fill="#A67C52" />
  <!-- Knobs -->
  <circle cx="345" cy="260" r="3" fill="#A67C52" />
  <circle cx="365" cy="260" r="3" fill="#A67C52" />
  
  <!-- Lower cabinet doors -->
  <rect x="220" y="320" width="70" height="100" rx="3" fill="#C19A6B" />
  <rect x="225" y="325" width="60" height="90" rx="2" fill="#D2B48C" />
  <circle cx="280" cy="370" r="3" fill="#8B5A2B" />
  
  <rect x="310" y="320" width="70" height="100" rx="3" fill="#C19A6B" />
  <rect x="315" y="325" width="60" height="90" rx="2" fill="#D2B48C" />
  <circle cx="370" cy="370" r="3" fill="#8B5A2B" />
  
  <!-- Upper cabinet/shelf -->
  <rect x="220" y="180" width="160" height="50" rx="3" fill="#D2B48C" />
  <rect x="225" y="185" width="150" height="40" rx="2" fill="#E6D2B5" />
  
  <!-- Wood grain on upper cabinet -->
  <path d="M240,195 C270,200 330,200 360,195" stroke="#C19A6B" stroke-width="1" fill="none" opacity="0.3" />
  <path d="M240,215 C270,220 330,220 360,215" stroke="#C19A6B" stroke-width="1" fill="none" opacity="0.3" />
  
  <!-- Upper cabinet doors -->
  <rect x="230" y="185" width="65" height="40" rx="2" fill="#C19A6B" />
  <rect x="235" y="190" width="55" height="30" rx="1" fill="#D2B48C" />
  <circle cx="290" cy="205" r="2" fill="#8B5A2B" />
  
  <rect x="305" y="185" width="65" height="40" rx="2" fill="#C19A6B" />
  <rect x="310" y="190" width="55" height="30" rx="1" fill="#D2B48C" />
  <circle cx="365" cy="205" r="2" fill="#8B5A2B" />
  
  <!-- Kitchen utensils -->
  <!-- Pot -->
  <rect x="345" y="215" width="20" height="15" rx="2" fill="#A67C52" />
  <path d="M345,215 C345,210 365,210 365,215" stroke="#A67C52" stroke-width="3" fill="none" />
  
  <!-- Wooden spoon -->
  <rect x="220" y="200" width="3" height="20" fill="#C19A6B" />
  <circle cx="221.5" cy="195" r="5" fill="#C19A6B" />
  
  <!-- Wooden spatula -->
  <rect x="230" y="200" width="3" height="20" fill="#D2B48C" />
  <rect x="227" y="195" width="9" height="5" rx="1" fill="#D2B48C" />
  
  <!-- Shadow under the kitchen set -->
  <ellipse cx="300" cy="480" rx="150" ry="10" fill="#6B4226" opacity="0.2" />
</svg>