<svg xmlns="http://www.w3.org/2000/svg" width="600" height="600" viewBox="0 0 600 600">
  <!-- Background -->
  <rect width="600" height="600" fill="#F9F5F0" />
  
  <!-- Rocking base -->
  <path d="M150,400 C200,450 400,450 450,400 C500,350 500,450 450,500 C400,550 200,550 150,500 C100,450 100,350 150,400 Z" fill="#8B5A2B" />
  <path d="M160,410 C205,455 395,455 440,410 C485,365 485,445 440,490 C395,535 205,535 160,490 C115,445 115,365 160,410 Z" fill="#A67C52" />
  
  <!-- Wood grain on base -->
  <path d="M200,430 C250,440 350,440 400,430" stroke="#6B4226" stroke-width="1" fill="none" opacity="0.3" />
  <path d="M200,450 C250,460 350,460 400,450" stroke="#6B4226" stroke-width="1" fill="none" opacity="0.3" />
  <path d="M200,470 C250,480 350,480 400,470" stroke="#6B4226" stroke-width="1" fill="none" opacity="0.3" />
  <path d="M200,490 C250,500 350,500 400,490" stroke="#6B4226" stroke-width="1" fill="none" opacity="0.3" />
  
  <!-- Horse body -->
  <ellipse cx="300" cy="300" rx="100" ry="60" fill="#D2B48C" />
  <ellipse cx="300" cy="300" rx="90" ry="50" fill="#E6D2B5" />
  
  <!-- Wood grain on body -->
  <path d="M230,280 C260,290 340,290 370,280" stroke="#A67C52" stroke-width="1" fill="none" opacity="0.3" />
  <path d="M230,300 C260,310 340,310 370,300" stroke="#A67C52" stroke-width="1" fill="none" opacity="0.3" />
  <path d="M230,320 C260,330 340,330 370,320" stroke="#A67C52" stroke-width="1" fill="none" opacity="0.3" />
  
  <!-- Horse neck -->
  <path d="M380,280 C400,250 410,220 400,190 C390,160 370,150 350,160" fill="#C19A6B" />
  <path d="M375,275 C395,245 405,220 395,190 C385,165 370,155 355,165" fill="#D2B48C" />
  
  <!-- Horse head -->
  <path d="M350,160 C330,150 320,130 330,110 C340,90 360,80 380,90 C400,100 410,120 400,140 C390,160 370,170 350,160 Z" fill="#C19A6B" />
  <path d="M355,165 C335,155 325,135 335,115 C345,95 365,85 385,95 C405,105 415,125 405,145 C395,165 375,175 355,165 Z" fill="#D2B48C" />
  
  <!-- Horse eye -->
  <ellipse cx="365" cy="115" rx="5" ry="7" fill="#6B4226" />
  
  <!-- Horse ear -->
  <path d="M340,100 L330,80 L350,90 Z" fill="#8B5A2B" />
  
  <!-- Horse mane -->
  <path d="M380,160 C385,150 390,140 385,130 C380,120 375,110 380,100" stroke="#8B5A2B" stroke-width="5" fill="none" />
  
  <!-- Horse tail -->
  <path d="M200,280 C180,260 170,240 180,220 C190,200 200,190 210,200" stroke="#8B5A2B" stroke-width="5" fill="none" />
  
  <!-- Legs -->
  <rect x="250" y="350" width="15" height="80" rx="5" fill="#C19A6B" />
  <rect x="335" y="350" width="15" height="80" rx="5" fill="#C19A6B" />
  
  <!-- Saddle -->
  <path d="M270,250 C280,240 320,240 330,250 C340,260 340,280 330,290 C320,300 280,300 270,290 C260,280 260,260 270,250 Z" fill="#8B5A2B" />
  
  <!-- Handle -->
  <path d="M280,250 C275,240 270,230 275,220" stroke="#8B5A2B" stroke-width="5" fill="none" />
</svg>