<svg xmlns="http://www.w3.org/2000/svg" width="600" height="600" viewBox="0 0 600 600">
  <!-- Background -->
  <rect width="600" height="600" fill="#F9F5F0" />
  
  <!-- Car body -->
  <rect x="150" y="300" width="300" height="60" rx="20" fill="#D2B48C" />
  <rect x="160" y="310" width="280" height="40" rx="15" fill="#E6D2B5" />
  
  <!-- Wood grain on car body -->
  <path d="M200,320 C250,325 350,325 400,320" stroke="#C19A6B" stroke-width="1" fill="none" opacity="0.3" />
  <path d="M200,340 C250,345 350,345 400,340" stroke="#C19A6B" stroke-width="1" fill="none" opacity="0.3" />
  
  <!-- Car cabin/top -->
  <rect x="250" y="250" width="100" height="50" rx="10" fill="#A67C52" />
  <rect x="260" y="260" width="80" height="30" rx="5" fill="#C19A6B" />
  
  <!-- Windows -->
  <rect x="270" y="265" width="20" height="20" rx="3" fill="#E6D2B5" />
  <rect x="310" y="265" width="20" height="20" rx="3" fill="#E6D2B5" />
  
  <!-- Front bumper -->
  <rect x="150" y="320" width="20" height="20" rx="5" fill="#8B5A2B" />
  
  <!-- Rear bumper -->
  <rect x="430" y="320" width="20" height="20" rx="5" fill="#8B5A2B" />
  
  <!-- Wheels -->
  <!-- Front wheel -->
  <circle cx="200" cy="380" r="30" fill="#8B5A2B" />
  <circle cx="200" cy="380" r="20" fill="#A67C52" />
  <circle cx="200" cy="380" r="10" fill="#6B4226" />
  <circle cx="200" cy="380" r="5" fill="#8B5A2B" />
  
  <!-- Rear wheel -->
  <circle cx="400" cy="380" r="30" fill="#8B5A2B" />
  <circle cx="400" cy="380" r="20" fill="#A67C52" />
  <circle cx="400" cy="380" r="10" fill="#6B4226" />
  <circle cx="400" cy="380" r="5" fill="#8B5A2B" />
  
  <!-- Wheel axles -->
  <rect x="170" y="375" width="60" height="10" rx="5" fill="#6B4226" />
  <rect x="370" y="375" width="60" height="10" rx="5" fill="#6B4226" />
  
  <!-- Headlights -->
  <circle cx="160" cy="310" r="5" fill="#E6D2B5" />
  
  <!-- Taillights -->
  <circle cx="440" cy="310" r="5" fill="#A67C52" />
  
  <!-- Decorative elements -->
  <!-- Front grill -->
  <rect x="155" y="330" width="10" height="10" rx="2" fill="#6B4226" />
  
  <!-- Door handle -->
  <rect x="290" y="290" width="10" height="5" rx="2" fill="#8B5A2B" />
  
  <!-- Pull string -->
  <path d="M450,330 C470,340 490,330 500,320" stroke="#8B5A2B" stroke-width="3" fill="none" />
  <circle cx="500" cy="320" r="5" fill="#A67C52" />
  
  <!-- Shadow under the car -->
  <ellipse cx="300" cy="420" rx="150" ry="10" fill="#6B4226" opacity="0.2" />
</svg>