<svg xmlns="http://www.w3.org/2000/svg" width="600" height="600" viewBox="0 0 600 600">
  <!-- Background -->
  <rect width="600" height="600" fill="#F9F5F0" />
  
  <!-- Wooden blocks stack -->
  <!-- Bottom layer -->
  <rect x="150" y="400" width="300" height="100" rx="10" fill="#A67C52" />
  <rect x="160" y="410" width="280" height="80" rx="5" fill="#C19A6B" />
  <line x1="160" y1="450" x2="440" y2="450" stroke="#8B5A2B" stroke-width="2" opacity="0.5" />
  
  <!-- Middle layer -->
  <rect x="200" y="300" width="200" height="100" rx="10" fill="#D2B48C" />
  <rect x="210" y="310" width="180" height="80" rx="5" fill="#E6D2B5" />
  <line x1="210" y1="350" x2="390" y2="350" stroke="#8B5A2B" stroke-width="2" opacity="0.5" />
  
  <!-- Top layer -->
  <rect x="250" y="200" width="100" height="100" rx="10" fill="#8B5A2B" />
  <rect x="260" y="210" width="80" height="80" rx="5" fill="#A67C52" />
  <line x1="260" y1="250" x2="340" y2="250" stroke="#6B4226" stroke-width="2" opacity="0.5" />
  
  <!-- Small blocks -->
  <rect x="150" y="350" width="40" height="40" rx="5" fill="#8B5A2B" />
  <rect x="410" y="350" width="40" height="40" rx="5" fill="#D2B48C" />
  <rect x="200" y="250" width="40" height="40" rx="5" fill="#A67C52" />
  <rect x="360" y="250" width="40" height="40" rx="5" fill="#C19A6B" />
  
  <!-- Wood grain details -->
  <path d="M170,420 C180,425 190,423 200,420 C210,417 220,415 230,420 C240,425 250,423 260,420 C270,417 280,415 290,420 C300,425 310,423 320,420 C330,417 340,415 350,420 C360,425 370,423 380,420 C390,417 400,415 410,420 C420,425 430,423 440,420" stroke="#8B5A2B" stroke-width="1" fill="none" opacity="0.3" />
  
  <path d="M220,320 C230,325 240,323 250,320 C260,317 270,315 280,320 C290,325 300,323 310,320 C320,317 330,315 340,320 C350,325 360,323 370,320" stroke="#8B5A2B" stroke-width="1" fill="none" opacity="0.3" />
  
  <path d="M270,220 C280,225 290,223 300,220 C310,217 320,215 330,220" stroke="#6B4226" stroke-width="1" fill="none" opacity="0.3" />
</svg>