<svg xmlns="http://www.w3.org/2000/svg" width="600" height="600" viewBox="0 0 600 600">
  <!-- Background -->
  <rect width="600" height="600" fill="#F9F5F0" />
  
  <!-- Wooden puzzle base -->
  <rect x="100" y="150" width="400" height="300" rx="10" fill="#D2B48C" />
  <rect x="110" y="160" width="380" height="280" rx="5" fill="#E6D2B5" />
  
  <!-- Wood grain on base -->
  <path d="M120,200 C140,205 160,203 180,200 C200,197 220,195 240,200 C260,205 280,203 300,200 C320,197 340,195 360,200 C380,205 400,203 420,200 C440,197 460,195 480,200" stroke="#A67C52" stroke-width="1" fill="none" opacity="0.3" />
  <path d="M120,250 C140,255 160,253 180,250 C200,247 220,245 240,250 C260,255 280,253 300,250 C320,247 340,245 360,250 C380,255 400,253 420,250 C440,247 460,245 480,250" stroke="#A67C52" stroke-width="1" fill="none" opacity="0.3" />
  <path d="M120,300 C140,305 160,303 180,300 C200,297 220,295 240,300 C260,305 280,303 300,300 C320,297 340,295 360,300 C380,305 400,303 420,300 C440,297 460,295 480,300" stroke="#A67C52" stroke-width="1" fill="none" opacity="0.3" />
  <path d="M120,350 C140,355 160,353 180,350 C200,347 220,345 240,350 C260,355 280,353 300,350 C320,347 340,345 360,350 C380,355 400,353 420,350 C440,347 460,345 480,350" stroke="#A67C52" stroke-width="1" fill="none" opacity="0.3" />
  <path d="M120,400 C140,405 160,403 180,400 C200,397 220,395 240,400 C260,405 280,403 300,400 C320,397 340,395 360,400 C380,405 400,403 420,400 C440,397 460,395 480,400" stroke="#A67C52" stroke-width="1" fill="none" opacity="0.3" />
  
  <!-- Puzzle pieces -->
  <!-- Elephant piece -->
  <path d="M150,200 L200,200 L200,220 L220,220 L220,250 L200,250 L200,270 L150,270 Z" fill="#8B5A2B" />
  <circle cx="170" cy="230" r="5" fill="#6B4226" />
  <path d="M180,250 C185,260 175,260 170,250" stroke="#6B4226" stroke-width="2" fill="none" />
  
  <!-- Giraffe piece -->
  <path d="M250,200 L300,200 L300,270 L280,270 L280,250 L250,250 Z" fill="#A67C52" />
  <circle cx="280" cy="220" r="5" fill="#8B5A2B" />
  <path d="M270,240 C275,250 265,250 260,240" stroke="#8B5A2B" stroke-width="2" fill="none" />
  
  <!-- Lion piece -->
  <path d="M350,200 L400,200 L400,270 L350,270 L350,250 L330,250 L330,220 L350,220 Z" fill="#C19A6B" />
  <circle cx="370" cy="230" r="5" fill="#A67C52" />
  <path d="M380,250 C385,260 375,260 370,250" stroke="#A67C52" stroke-width="2" fill="none" />
  
  <!-- Monkey piece -->
  <path d="M150,300 L200,300 L200,370 L150,370 Z" fill="#D2B48C" />
  <circle cx="170" cy="330" r="5" fill="#A67C52" />
  <path d="M180,350 C185,360 175,360 170,350" stroke="#A67C52" stroke-width="2" fill="none" />
  
  <!-- Zebra piece -->
  <path d="M250,300 L300,300 L300,320 L320,320 L320,350 L300,350 L300,370 L250,370 L250,350 L230,350 L230,320 L250,320 Z" fill="#E6D2B5" />
  <circle cx="280" cy="330" r="5" fill="#A67C52" />
  <path d="M270,350 C275,360 265,360 260,350" stroke="#A67C52" stroke-width="2" fill="none" />
  
  <!-- Hippo piece -->
  <path d="M350,300 L400,300 L400,370 L350,370 Z" fill="#8B5A2B" />
  <circle cx="370" cy="330" r="5" fill="#6B4226" />
  <path d="M380,350 C385,360 375,360 370,350" stroke="#6B4226" stroke-width="2" fill="none" />
</svg>