<svg xmlns="http://www.w3.org/2000/svg" width="600" height="600" viewBox="0 0 600 600">
  <!-- Background -->
  <rect width="600" height="600" fill="#F9F5F0" />
  
  <!-- Train track -->
  <rect x="100" y="450" width="400" height="10" rx="2" fill="#8B5A2B" />
  <rect x="100" y="470" width="400" height="10" rx="2" fill="#8B5A2B" />
  
  <!-- Track ties -->
  <rect x="120" y="450" width="10" height="30" fill="#A67C52" />
  <rect x="170" y="450" width="10" height="30" fill="#A67C52" />
  <rect x="220" y="450" width="10" height="30" fill="#A67C52" />
  <rect x="270" y="450" width="10" height="30" fill="#A67C52" />
  <rect x="320" y="450" width="10" height="30" fill="#A67C52" />
  <rect x="370" y="450" width="10" height="30" fill="#A67C52" />
  <rect x="420" y="450" width="10" height="30" fill="#A67C52" />
  <rect x="470" y="450" width="10" height="30" fill="#A67C52" />
  
  <!-- Engine -->
  <!-- Engine body -->
  <rect x="150" y="350" width="100" height="70" rx="5" fill="#D2B48C" />
  <rect x="155" y="355" width="90" height="60" rx="3" fill="#E6D2B5" />
  
  <!-- Engine cabin -->
  <rect x="170" y="300" width="60" height="50" rx="5" fill="#8B5A2B" />
  <rect x="175" y="305" width="50" height="40" rx="3" fill="#A67C52" />
  
  <!-- Engine chimney -->
  <rect x="190" y="270" width="20" height="30" rx="2" fill="#8B5A2B" />
  <rect x="185" y="260" width="30" height="10" rx="2" fill="#A67C52" />
  
  <!-- Engine front -->
  <rect x="250" y="370" width="20" height="30" rx="2" fill="#8B5A2B" />
  
  <!-- Engine wheels -->
  <circle cx="170" cy="440" r="20" fill="#8B5A2B" />
  <circle cx="170" cy="440" r="15" fill="#A67C52" />
  <circle cx="170" cy="440" r="5" fill="#6B4226" />
  
  <circle cx="230" cy="440" r="20" fill="#8B5A2B" />
  <circle cx="230" cy="440" r="15" fill="#A67C52" />
  <circle cx="230" cy="440" r="5" fill="#6B4226" />
  
  <!-- Engine windows -->
  <rect x="180" y="315" width="15" height="15" rx="2" fill="#E6D2B5" />
  <rect x="205" y="315" width="15" height="15" rx="2" fill="#E6D2B5" />
  
  <!-- Cargo car -->
  <!-- Cargo car body -->
  <rect x="290" y="370" width="80" height="50" rx="5" fill="#C19A6B" />
  <rect x="295" y="375" width="70" height="40" rx="3" fill="#D2B48C" />
  
  <!-- Cargo car wheels -->
  <circle cx="310" cy="440" r="20" fill="#8B5A2B" />
  <circle cx="310" cy="440" r="15" fill="#A67C52" />
  <circle cx="310" cy="440" r="5" fill="#6B4226" />
  
  <circle cx="350" cy="440" r="20" fill="#8B5A2B" />
  <circle cx="350" cy="440" r="15" fill="#A67C52" />
  <circle cx="350" cy="440" r="5" fill="#6B4226" />
  
  <!-- Cargo (blocks) -->
  <rect x="300" y="345" width="20" height="20" rx="2" fill="#8B5A2B" />
  <rect x="330" y="345" width="20" height="20" rx="2" fill="#D2B48C" />
  <rect x="315" y="325" width="20" height="20" rx="2" fill="#A67C52" />
  
  <!-- Caboose -->
  <!-- Caboose body -->
  <rect x="390" y="370" width="60" height="50" rx="5" fill="#8B5A2B" />
  <rect x="395" y="375" width="50" height="40" rx="3" fill="#A67C52" />
  
  <!-- Caboose roof -->
  <path d="M380,370 L460,370 L420,340 Z" fill="#D2B48C" />
  
  <!-- Caboose wheels -->
  <circle cx="400" cy="440" r="20" fill="#8B5A2B" />
  <circle cx="400" cy="440" r="15" fill="#A67C52" />
  <circle cx="400" cy="440" r="5" fill="#6B4226" />
  
  <circle cx="440" cy="440" r="20" fill="#8B5A2B" />
  <circle cx="440" cy="440" r="15" fill="#A67C52" />
  <circle cx="440" cy="440" r="5" fill="#6B4226" />
  
  <!-- Caboose windows -->
  <rect x="405" y="385" width="15" height="15" rx="2" fill="#E6D2B5" />
  <rect x="430" y="385" width="15" height="15" rx="2" fill="#E6D2B5" />
  
  <!-- Connectors between cars -->
  <rect x="250" y="400" width="40" height="5" fill="#6B4226" />
  <rect x="370" y="400" width="20" height="5" fill="#6B4226" />
  
  <!-- Steam -->
  <path d="M200,260 C195,250 205,245 210,240 C215,235 205,230 200,225" stroke="#E6D2B5" stroke-width="3" fill="none" opacity="0.7" />
</svg>